<?xml version="1.0" encoding="utf-8"?>
<!-- Generator: Adobe Illustrator 16.0.0, SVG Export Plug-In . SVG Version: 6.00 Build 0)  -->
<!DOCTYPE svg PUBLIC "-//W3C//DTD SVG 1.1//EN" "http://www.w3.org/Graphics/SVG/1.1/DTD/svg11.dtd">
<svg version="1.1" id="Layer_1" xmlns="http://www.w3.org/2000/svg" xmlns:xlink="http://www.w3.org/1999/xlink" x="0px" y="0px"
	 width="1060.5px" height="499.998px" viewBox="0 0 1060.5 499.998" enable-background="new 0 0 1060.5 499.998"
	 xml:space="preserve">
<g>
	<path fill="#FFFFFF" d="M165.833,264.937c-4.485-0.35-8.966-0.848-13.457-0.946c-1.246-0.028-3.304,0.835-3.655,1.784
		c-2.996,8.095-5.212,16.324-2.115,24.986c1.634,4.571,3.191,5.276,7.273,2.715c7.305-4.584,15.121-8.057,23.458-10.095
		c3.683-0.901,7.685-0.993,11.496-0.745c4.716,0.309,7.2,6.313,4.097,10.4c-2.553,3.363-5.688,6.611-9.24,8.828
		c-9.81,6.121-20.473,9.255-32.19,6.688c-2.74-0.601-4.737,0.881-6.595,2.408c-5.209,4.283-10.532,8.464-15.399,13.116
		c-11.429,10.923-21.413,23.056-29.112,36.934c-4.864,8.767-8.936,17.859-10.435,27.904c-1.336,8.949-0.756,17.612,3.792,25.675
		c3.792,6.725,9.576,10.502,17.221,11.569c10.745,1.5,20.681-0.8,30.205-5.82c11.87-6.258,21.481-15.084,29.424-25.713
		c8.295-11.103,14.359-23.394,18.574-36.64c2.077-6.525,3.681-13.055,2.531-19.867c-0.527-3.122-1.561-6.309-3.066-9.083
		c-2.521-4.648-7.141-5.454-11.934-4.98c-10.452,1.033-19.152,5.884-26.767,12.851c-8.502,7.779-13.814,17.406-16.048,28.688
		c-1.302,6.57-0.721,12.803,3.284,18.562c2.658,3.826,1.821,7.34-1.67,9.547c-2.607,1.648-4.306,1.375-6.354-1.023
		c-4.576-5.355-6.139-11.791-6.167-18.58c-0.051-12.361,3.882-23.514,11.045-33.531c6.697-9.365,14.986-17.002,25.197-22.392
		c7.703-4.065,15.63-7.223,24.711-6.317c5.371,0.533,9.276,3.149,12.521,7.094c6.217,7.554,6.56,16.476,5.742,25.617
		c-0.889,9.927-4.702,18.959-8.498,28.026c-5.003,11.951-11.265,23.109-19.621,33.061c-8.362,9.957-18.192,18.16-29.399,24.712
		c-12.062,7.051-24.96,9.886-38.884,7.639c-8.175-1.319-14.258-5.936-18.972-12.31c-6.677-9.029-8.111-19.567-7.816-30.491
		c0.457-16.991,7.539-31.538,17.021-45.031c5.883-8.371,12.064-16.628,18.938-24.186c6.804-7.479,14.612-14.053,22.062-20.934
		c1.598-1.476,2.998-2.795,1.422-4.977c-5.236-7.247-4.154-15.413-3.229-23.441c0.437-3.794,1.794-7.486,2.792-11.21
		c0.703-2.622,0.172-3.639-2.512-4.27c-10.945-2.571-21.862-5.273-32.85-7.644c-19.077-4.116-36.515-0.275-52.598,10.809
		c-12.551,8.648-21.868,19.768-27.234,33.988c-4.015,10.64-5.133,21.705-0.862,32.472c3.234,8.151,10.269,12.509,20.123,12.112
		c14.398-0.58,24.448-8.207,30.742-20.789c2.021-4.041,3.47-8.557,4.205-13.016c1.912-11.611-7.261-15.102-15.447-11.839
		c-7.27,2.896-12.575,7.968-16.054,14.892c-1.486,2.955-2.513,6.144-3.747,9.226c-0.033,0.083-0.047,0.173-0.072,0.26
		c-1.112,3.815-3.786,6.123-6.533,5.634c-2.612-0.465-3.896-3.242-3.295-7.591c1.47-10.62,7.003-18.944,14.958-25.794
		c6.533-5.626,14.023-9.021,22.78-9.29c10.646-0.327,17.417,5.457,18.164,16.063c0.884,12.545-3.525,23.527-10.992,33.334
		c-4.771,6.267-10.308,11.832-17.446,15.461c-8.597,4.369-17.613,6.138-27.197,4.016c-12.555-2.779-21.92-13.413-23.457-26.811
		c-1.349-11.756,1.105-22.863,5.628-33.688c5.527-13.226,14.723-23.528,25.318-32.804c10.618-9.295,22.91-15.126,36.722-17.803
		c13.361-2.589,26.534-1.113,39.595,2.063c8.475,2.06,16.932,4.198,25.368,6.415c2.869,0.753,4.812-0.013,6.37-2.534
		c6.02-9.747,13.684-18.126,22.639-25.154c10.654-8.361,22.388-14.977,36.112-16.556c5.438-0.625,11.199-0.329,16.569,0.757
		c10.343,2.093,13.553,13.589,10.719,21.589c-2.826,7.981-8.268,14.03-14.463,19.49c-12.638,11.138-27.876,15.259-44.254,16.163
		c-3.048,0.168-6.114,0.023-9.172,0.023C165.839,264.722,165.836,264.828,165.833,264.937z M170.655,254.444
		c5.772-0.575,11.794-0.951,17.744-1.816c11.143-1.62,21.027-6.12,29.072-14.113c3.656-3.632,6.791-7.745,7.231-13.21
		c0.291-3.613-1.319-6.096-4.748-7.203c-1.785-0.576-3.632-1.064-5.487-1.3c-9.318-1.184-17.736,1.836-25.951,5.728
		c-8.328,3.946-15.271,9.795-21.645,16.28c-3.445,3.504-6.403,7.516-9.35,11.47c-1.537,2.063-0.979,3.098,1.582,3.356
		C162.853,254.015,166.624,254.174,170.655,254.444z"/>
	<path fill="#FFFFFF" d="M391.739,282.035c-0.697,0.331-1.461,0.565-2.08,1.006c-8.205,5.838-16.383,11.713-24.583,17.56
		c-1.619,1.153-2.162,2.492-1.95,4.596c1.726,17.182-1.729,33.008-13.292,46.318c-5.113,5.887-11.742,10.092-19.306,11.84
		c-11.94,2.76-20.075-3.379-19.165-16.703c0.431-6.312,3.121-11.86,6.594-17.184c6.451-9.889,15.538-16.917,24.888-23.639
		c7.343-5.28,7.521-5.084,5.71-13.686c-1.056-5.012-2.222-10-3.377-14.992c-0.152-0.664-0.538-1.271-1.071-2.489
		c-0.964,1.204-1.797,1.961-2.284,2.897c-4.112,7.896-8.089,15.861-12.248,23.731c-4.832,9.144-9.499,18.394-14.792,27.267
		c-7.458,12.502-14.118,25.59-24.06,36.43c-4.176,4.554-8.551,9.062-13.464,12.759c-4.314,3.243-11.151,5.261-16.037,1.151
		c-2.753-2.314-3.846-5.315-4.525-8.633c-0.201-0.984-0.516-1.943-0.991-3.697c-1.252,1.563-2.003,2.498-2.748,3.437
		c-5.356,6.746-10.446,13.729-16.165,20.149c-3.446,3.871-7.969,6.684-13.027,8.421c-6.053,2.08-13.413-0.914-16.269-6.611
		c-4.368-8.711-3.562-17.853-1.287-26.662c2.215-8.573,5.615-16.866,8.874-25.133c4.313-10.937,10.639-20.743,17.416-30.334
		c6.513-9.22,14.095-17.292,23.334-23.679c4.898-3.385,10.445-5.482,16.573-5.955c4.731-0.364,7.915,1.814,10.56,5.255
		c2.102,2.733,2.655,2.662,4.214-0.527c1.936-3.956,3.888-7.913,6.052-11.745c0.856-1.517,2.093-3.051,3.549-3.916
		c1.117-0.664,3.173-0.836,4.217-0.22c1.018,0.603,1.983,2.63,1.74,3.771c-0.625,2.937-1.685,5.849-3.005,8.56
		c-7.479,15.362-15.318,30.556-22.553,46.032c-3.683,7.877-6.66,16.127-9.347,24.404c-1.183,3.645-1.293,7.804-1.097,11.688
		c0.301,5.969,4.223,7.801,8.713,3.926c3.979-3.434,7.347-7.616,10.753-11.665c10.09-11.992,17.386-25.764,24.843-39.429
		c4.092-7.498,8.42-14.87,12.398-22.427c6.326-12.021,12.401-24.17,18.677-36.217c4.069-7.812,8.24-15.576,12.522-23.271
		c0.741-1.331,2.17-2.373,3.469-3.276c1.63-1.133,3.759-1.295,4.854,0.377c0.769,1.173,0.795,3.233,0.382,4.677
		c-0.556,1.944-1.823,3.693-2.836,5.498c-6.198,11.042-7.634,22.707-4.48,34.93c1.146,4.442,2.465,8.841,3.779,13.237
		c0.535,1.787,1.574,3.031,3.55,1.598c8.076-5.864,16.252-11.605,24.136-17.721c8.108-6.289,13.637-14.795,18.621-23.589
		c4.968-8.764,9.543-17.75,14.408-26.572c1.071-1.944,2.377-3.945,4.072-5.295c1.194-0.951,3.379-1.441,4.854-1.071
		c2.031,0.513,2.251,2.751,1.724,4.55c-0.7,2.389-1.67,4.718-2.72,6.982c-7.075,15.256-14.279,30.454-21.282,45.745
		c-3.967,8.662-7.666,17.449-11.417,26.209c-2.147,5.02-3.198,10.283-3.229,15.76c-0.028,5.15,3.117,8.084,7.978,6.402
		c3.899-1.35,7.707-3.532,10.941-6.116c7.581-6.056,13.293-13.749,18.563-21.915c8.563-13.268,13.604-28.102,19.995-42.344
		c4.123-9.188,8.604-18.212,12.833-27.353c2.376-5.136,4.556-10.363,6.843-15.54c0.981-2.22,1.874-4.497,3.075-6.595
		c0.685-1.197,1.802-2.222,2.915-3.077c1.512-1.162,3.583-1.853,4.896-0.283c0.971,1.162,1.485,3.313,1.173,4.808
		c-0.562,2.688-1.77,5.273-2.934,7.797c-4.554,9.882-9.341,19.658-13.772,29.594c-6.153,13.798-12.016,27.729-18.097,41.559
		c-5.86,13.332-11.893,26.586-17.751,39.92c-3.361,7.649-6.506,15.396-9.785,23.082c-5.224,12.24-10.499,24.457-15.708,36.701
		c-2.499,5.874-4.792,11.838-7.413,17.653c-0.733,1.626-2.032,3.404-3.55,4.184c-2.977,1.529-6.12-1.287-5.531-4.998
		c0.432-2.721,1.34-5.427,2.43-7.97c5.667-13.227,11.458-26.396,17.213-39.584c3.922-8.984,7.861-17.964,11.771-26.956
		c0.272-0.628,0.361-1.336,0.747-2.812c-1.364,0.804-2.176,1.186-2.88,1.712c-4.688,3.499-9.306,7.043-15.099,8.694
		c-11.117,3.168-19.41-3.098-19.093-14.697c0.302-11.098,3.771-21.367,8.495-31.288c0.674-1.416,1.09-2.955,1.626-4.437
		C392.185,282.413,391.962,282.224,391.739,282.035z M264.143,331.926c-1.821,0.601-2.792,0.957-3.784,1.238
		c-2.238,0.635-4.457,1.556-6.738,1.771c-3.47,0.328-5.612-2.574-3.983-5.631c1.011-1.896,3.01-3.468,4.9-4.65
		c3.404-2.133,7.237-3.594,10.574-5.814c7.757-5.161,10.721-12.716,10-21.839c-0.418-5.302-2.166-6.635-7.395-5.492
		c-5.184,1.134-9.142,4.479-13.102,7.726c-9.997,8.189-16.744,18.904-23.002,29.963c-6.733,11.9-11.549,24.572-14.384,37.927
		c-0.979,4.608-1.524,9.47-1.232,14.149c0.341,5.463,4.79,7.668,9.714,5.295c4.54-2.189,8.03-5.729,10.921-9.807
		c4.727-6.664,9.565-13.264,13.981-20.132c4.367-6.791,8.293-13.866,12.348-20.854C263.468,334.901,263.583,333.8,264.143,331.926z
		 M353.332,317.242c-0.083-1.255-0.037-2.536-0.287-3.757c-0.217-1.062-0.766-2.053-1.168-3.075
		c-1.016,0.475-2.196,0.758-3.021,1.458c-3.962,3.365-7.84,6.829-11.726,10.283c-5.252,4.668-10.364,9.521-13.249,16.068
		c-1.118,2.535-1.826,5.447-1.894,8.209c-0.128,5.242,3.264,7.811,8.329,6.26c6.108-1.869,11.49-5.219,15.423-10.336
		C351.398,334.987,352.876,326.244,353.332,317.242z"/>
	<path fill="#FFFFFF" d="M607.679,45.508c12.944-0.316,25.083,2.794,36.788,7.83c9.169,3.945,18.217,8.171,27.334,12.241
		c3.443,1.537,6.854,3.228,10.435,4.349c1.457,0.456,3.613,0.058,4.967-0.757c12.257-7.384,25.229-12.729,39.595-13.979
		c3.33-0.29,6.889-0.014,10.104,0.867c6.11,1.674,8.891,8.667,6.042,14.362c-4.791,9.576-13.128,13.75-23.259,15.514
		c-10.899,1.898-21.309-0.105-31.64-3.207c-2.727-0.819-4.798,0.062-6.978,1.658c-12.59,9.215-22.229,21.063-29.61,34.585
		c-3.801,6.962-6.463,14.66-8.797,22.284c-4.447,14.525-7.834,29.384-12.527,43.822c-3.714,11.42-8.187,22.671-13.297,33.538
		c-6.08,12.928-14.52,24.464-24.812,34.425c-6.378,6.172-12.859,12.447-20.157,17.406c-11.607,7.89-24.845,12.23-38.849,13.637
		c-9.328,0.938-18.02-1.299-25.009-7.837c-5.624-5.261-8.927-11.937-9.599-19.697c-0.962-11.136,1.125-21.696,6.53-31.514
		c5.297-9.626,12.457-17.662,21.679-23.627c10.034-6.491,20.938-10.413,33.151-9.184c12.275,1.236,18.639,10.789,19.092,18.495
		c0.413,7.03-1.666,13.254-5.717,18.988c-3.657,5.181-7.995,9.5-13.788,12.178c-1.526,0.705-3.205,1.275-4.863,1.46
		c-3.506,0.39-5.676-2.642-3.713-5.55c1.421-2.104,3.776-3.73,6.002-5.108c6.297-3.901,11.343-8.472,11.79-16.576
		c0.345-6.231-4.732-12.877-10.888-13.719c-5.362-0.733-10.638-0.304-15.667,1.723c-10.494,4.229-20.014,9.757-26.231,19.751
		c-7.172,11.53-9.08,23.697-4.921,36.709c2.27,7.099,11.391,13.156,19.877,12.889c17.766-0.561,33.411-6.544,46.532-18.712
		c10.486-9.726,19.758-20.56,26.772-32.982c5.1-9.03,8.945-18.775,13.214-28.262c5.232-11.628,7.82-24.092,11.153-36.311
		c2.011-7.367,3.087-15.056,5.76-22.157c3.154-8.381,7.122-16.545,11.564-24.332c6.092-10.683,14.083-19.979,23.428-28.046
		c0.477-0.412,1.031-0.744,1.458-1.199c0.879-0.941,1.694-1.941,2.536-2.917c-1.006-0.675-1.948-1.485-3.03-2.002
		c-9.086-4.33-18.211-8.577-27.298-12.904c-19.137-9.11-39.033-10.145-59.605-6.271c-15.742,2.965-29.931,9.309-42.477,18.969
		c-5.474,4.214-10.162,9.698-14.385,15.232c-6.615,8.667-11.082,18.603-12.867,29.377c-1.867,11.264-0.183,21.755,9.529,29.501
		c4.187,3.339,9.184,4.713,14.221,5.423c15.994,2.254,29.998-2.221,41.987-13.146c5.224-4.759,9.316-10.237,11.886-16.797
		c2.314-5.909,2.203-11.938-0.618-17.568c-2.282-4.555-6.466-7.124-11.571-7.296c-10.482-0.354-22.479,4.877-26.993,15.737
		c-1.25,3.008-1.571,6.417-2.192,9.667c-0.421,2.202-0.477,4.479-0.958,6.665c-0.603,2.729-3.188,4.638-5.646,4.461
		c-2.203-0.158-3.504-1.865-3.597-5.207c-0.364-13.061,4.904-23.537,14.826-31.819c7.484-6.247,16.284-9.112,25.86-9.609
		c8.365-0.435,17.268,6.066,20.293,14.421c3.67,10.137,2.004,19.691-3.298,28.766c-7.923,13.56-19.493,22.934-33.979,28.665
		c-11.167,4.418-22.771,5.518-34.413,2.261c-18.491-5.172-27.069-19.646-25.613-37.716c1.405-17.421,8.238-32.352,19.783-45.416
		c6.802-7.698,14.283-14.504,23.022-19.81c12.384-7.519,25.957-11.96,40.22-14.172C593.348,46.853,600.533,46.306,607.679,45.508z
		 M698.011,73.807c0.554,0.538,0.66,0.731,0.812,0.777c9.308,2.811,18.614,3.116,27.75-0.529c2.178-0.869,4.177-2.467,5.898-4.105
		c1.76-1.673,1.024-4.073-1.291-4.919c-0.898-0.328-1.941-0.411-2.911-0.377c-9.603,0.327-18.628,2.859-27.146,7.251
		C700.126,72.419,699.201,73.074,698.011,73.807z"/>
	<path fill="#FFFFFF" d="M811.916,141.728c1.174-18.11,7.299-33.085,19.129-45.61c1.907-2.019,2.379-3.504,0.729-6.015
		c-2.316-3.522-3.113-7.633-2.799-11.885c1.461-19.707,15.29-34.559,34.879-37.112c6.863-0.895,13.594-0.356,18.492,5.594
		c2.71,3.29,4.284,7.037,4.112,11.399c-0.144,3.624-2.591,6.769-5.703,7.26c-2.412,0.38-4.059-0.558-4.747-2.92
		c-0.324-1.117-0.646-2.291-0.646-3.438c-0.007-7.455-5.78-9.559-10.905-8.855c-11.632,1.598-20.397,7.478-24.541,18.831
		c-1.836,5.031-2.466,10.326,0.313,15.455c1.131,2.085,2.39,2.243,4.394,1.221c3.749-1.913,7.543-3.774,11.443-5.349
		c5.051-2.039,10.079-1.309,14.938,0.89c3.341,1.512,4.729,7.228,2.538,10.628c-5.527,8.577-14.153,11.493-24.963,9.721
		c-2.192-0.36-4.254-1.509-6.446-1.906c-1.141-0.207-2.895,0.004-3.589,0.753c-10.138,10.917-16.285,23.691-16.591,38.749
		c-0.139,6.863,2.289,13.019,8.588,16.713c4.463,2.619,9.57,2.632,14.113,0.758c5.271-2.174,10.431-4.956,15.062-8.278
		c11.834-8.49,21.415-19.156,28.7-31.826c7.794-13.557,15.967-26.912,23.3-40.712c5.814-10.942,10.646-22.41,15.841-33.678
		c1.676-3.632,1.217-4.422-2.59-5.475c-5.872-1.624-8.939-6.187-8.737-13.21c0.201-6.954,2.398-12.98,7.946-17.62
		c4.395-3.672,13.271-4.657,16.641-1.08c1.65,1.754,3.127,4.464,3.175,6.773c0.097,4.624-0.734,9.285-1.396,13.9
		c-0.429,2.993,0.145,4.037,3.166,3.511c7.345-1.278,14.643-2.836,21.955-4.296c1.321-0.264,2.614-0.729,3.945-0.875
		c4.518-0.497,7.089,1.821,7.577,6.326c0.536,4.945-1.533,9.229-3.432,13.434c-4.615,10.232-9.569,20.314-14.436,30.432
		c-4.987,10.376-10.134,20.678-15.003,31.108c-1.933,4.14-3.524,8.473-4.89,12.838c-1.927,6.158,1.587,13.086,7.64,15.521
		c2.082,0.837,4.244,1.507,6.414,2.089c2.903,0.779,3.792-0.23,3.166-3.185c-1.755-8.29-0.558-15.784,6.166-21.657
		c6.056-5.289,14.952-5.905,21.521-1.554c4.126,2.733,5.992,7.832,5.053,12.74c-1.518,7.923-6.629,13.211-12.702,17.786
		c-2.96,2.229-3.093,2.107-0.688,5.061c1.704,2.091,3.294,4.332,5.276,6.128c4.374,3.963,2.417,8.755-1.927,10.991
		c-4.132,2.126-8.569,3.691-12.957,5.273c-9.556,3.447-19.168,6.728-28.745,10.114c-6.012,2.125-11.999,4.311-17.993,6.482
		c-10.814,3.92-21.609,7.9-32.444,11.766c-20.58,7.342-41.188,14.604-61.773,21.932c-13.642,4.856-27.263,9.77-40.895,14.651
		c-4.987,1.786-9.966,3.608-14.992,5.281c-1,0.332-2.201,0.056-3.311,0.061c0.117-1.024,0.062-2.107,0.384-3.063
		c1.342-3.979,3.482-6.895,7.917-8.357c10.671-3.522,21.161-7.595,31.728-11.44c16.392-5.965,32.766-11.982,49.186-17.869
		c10.838-3.886,21.766-7.521,32.615-11.374c12.965-4.604,25.882-9.344,38.835-13.979c12.874-4.606,25.766-9.158,38.65-13.728
		c3.278-1.162,3.517-2.151,1.34-4.717c-1.272-1.5-2.422-3.129-3.441-4.813c-1.08-1.783-2.53-2.458-4.528-2.123
		c-8.06,1.35-15.145-1.611-21.815-5.454c-6.799-3.915-10.103-13.432-8.271-21.307c1.911-8.228,5.408-15.801,9.058-23.337
		c7.484-15.461,14.954-30.93,22.431-46.396c1.76-3.64,3.605-7.243,5.229-10.942c0.454-1.036,0.26-2.356,0.361-3.547
		c-1.011,0.054-2.083-0.089-3.025,0.193c-7.557,2.262-15.289,3.399-23.148,3.512c-2.857,0.041-4.146,0.904-5.116,3.82
		c-1.981,5.959-4.825,11.625-7.1,17.496c-4.954,12.791-11.031,25.036-18.114,36.752c-8.554,14.146-16.309,28.855-27.506,41.229
		c-8.188,9.047-17.259,17.172-27.739,23.438c-8.062,4.82-16.763,7.88-26.521,5.863c-9.076-1.877-13.559-8.322-16.276-16.315
		C812.341,147.744,812.299,144.233,811.916,141.728z M974.966,115.855c-0.37,0.1-0.997,0.2-1.568,0.435
		c-5.064,2.073-6.984,13.131-2.837,16.797c0.497,0.439,2.159,0.442,2.527,0.007c2.634-3.102,5.527-6.123,7.444-9.655
		C982.42,119.958,979.24,115.89,974.966,115.855z M934.561,17.258c-0.149-1.401-0.134-2.413-0.383-3.354
		c-0.608-2.292-2.664-2.989-4.62-1.654c-4.061,2.771-4.543,10.192-0.868,13.364c1.9,1.641,3.586,1.292,4.279-1.105
		C933.689,22.017,934.095,19.435,934.561,17.258z M851.815,91.927c2.812,1.625,9.358,1.094,11.345-0.853
		c0.393-0.386,0.828-1.241,0.655-1.572c-0.264-0.504-1.11-1.118-1.589-1.029c-3.14,0.587-6.256,1.309-9.351,2.105
		C852.444,90.69,852.177,91.446,851.815,91.927z"/>
	<path fill="#FFFFFF" d="M798.992,97.883c1.298-3.289,2.557-6.595,3.901-9.863c1.878-4.568,3.702-9.165,5.785-13.639
		c1.085-2.33,2.889-4.16,5.729-4.372c2.406-0.179,3.898,0.941,3.967,3.331c0.043,1.573-0.188,3.281-0.783,4.726
		c-6.387,15.448-12.994,30.807-19.289,46.292c-4.975,12.238-9.605,24.617-14.378,36.938c-5.228,13.498-10.413,27.012-15.67,40.498
		c-6.791,17.417-13.632,34.815-20.458,52.219c-2.23,5.688-4.381,11.41-6.786,17.022c-0.903,2.106-2.278,4.067-3.725,5.864
		c-1.169,1.455-2.903,2.272-4.825,1.312c-1.99-0.997-2.076-2.94-1.618-4.7c0.859-3.299,1.857-6.582,3.076-9.763
		c8.104-21.149,16.28-42.271,24.451-63.394c0.646-1.676,1.483-3.279,2.153-4.948c0.331-0.831,0.482-1.736,0.716-2.607
		c-0.196-0.139-0.395-0.277-0.589-0.416c-0.784,0.496-1.599,0.951-2.348,1.495c-7.898,5.726-16.423,9.265-26.447,7.701
		c-7.336-1.146-12.451-4.506-14.341-13.528c-0.143-0.676-0.455-1.316-0.93-2.65c-1.094,1.253-1.973,2.051-2.602,3.012
		c-4.229,6.47-8.003,13.28-12.689,19.396c-6.798,8.873-14.524,17-24.852,21.887c-2.994,1.418-6.496,2.211-9.818,2.407
		c-8.706,0.516-12.485-5.484-13.44-12.759c-0.922-7.028,0.831-13.689,2.533-20.459c3.323-13.206,9.225-25.308,15.012-37.488
		c2.161-4.549,4.296-9.111,6.415-13.678c0.325-0.702,0.513-1.467,1.001-2.904c-1.536,0.526-2.496,0.787-3.399,1.177
		c-3.87,1.671-7.672,3.517-11.601,5.034c-3.132,1.209-5.4,0.441-6.33-1.676c-0.973-2.219,0.379-4.742,3.306-6.243
		c5.427-2.784,11.247-5.022,16.151-8.537c4.896-3.508,8.849-8.324,13.258-12.52c1.344-1.278,2.678-2.752,4.311-3.473
		c1.054-0.466,3.234-0.191,3.845,0.587c0.833,1.064,1.327,3.229,0.8,4.389c-3.32,7.275-7.125,14.33-10.468,21.595
		c-5.557,12.077-10.858,24.271-16.32,36.391c-3.914,8.682-5.938,17.904-7.854,27.151c-0.525,2.538-0.865,5.171-0.834,7.755
		c0.057,4.449,3.625,6.88,7.938,5.598c5.47-1.625,10.053-4.7,14.06-8.723c9.628-9.668,16.747-21.085,23.081-33.047
		c5.938-11.21,11.184-22.708,15.662-34.607c3.221-8.556,6.879-17.081,11.493-24.944c6.748-11.495,14.601-22.312,26.232-29.634
		c6.883-4.331,14.432-6.187,22.43-5.256c5.59,0.651,9.69,4.042,12.384,9.028c0.535,0.993,1.104,1.966,1.659,2.948
		C798.296,97.832,798.645,97.857,798.992,97.883z M785.288,133.444c-0.213-0.17-0.427-0.34-0.641-0.511
		c-1.204,0.824-2.4,1.663-3.617,2.469c-5.142,3.401-10.761,5.407-16.956,5.404c-3.264-0.002-4.382-1.855-3.546-5.046
		c0.825-3.156,3.226-4.115,6.012-4.596c7.552-1.303,13.709-4.745,17.748-11.469c3.07-5.113,5.365-10.405,4.11-16.606
		c-0.804-3.968-4.798-7.71-8.598-7.828c-7.476-0.231-13.877,2.442-19.486,7.263c-7.568,6.501-12.866,14.821-17.751,23.278
		c-8.148,14.108-13.854,29.188-16.308,45.444c-0.782,5.187-0.224,10.04,1.353,14.864c0.98,3.008,3.127,4.855,6.334,5.637
		c4.459,1.086,8.687,0.22,12.628-1.575c12.651-5.764,21.607-15.314,27.219-27.94c3.828-8.615,7.328-17.376,10.932-26.09
		C785.066,135.308,785.106,134.347,785.288,133.444z"/>
	<path fill="#FFFFFF" d="M64.39,497.497c-3.561,0.07-5.19-1.479-5.087-4.596c0.13-3.923,2.444-6.257,5.918-7.568
		c6.733-2.543,13.486-5.032,20.234-7.532c10.966-4.062,21.919-8.159,32.906-12.163c15.382-5.604,30.794-11.131,46.188-16.705
		c18.1-6.553,36.208-13.085,54.289-19.69c16.978-6.202,33.912-12.521,50.888-18.729c14.362-5.252,28.764-10.397,43.135-15.625
		c15.3-5.566,30.586-11.172,45.877-16.763c8.952-3.272,17.889-6.59,26.872-9.774c0.958-0.341,2.404-0.268,3.193,0.258
		c0.442,0.297,0.189,1.97-0.075,2.933c-1.51,5.479-4.991,8.383-10.608,10.179c-11.21,3.581-22.078,8.229-33.129,12.318
		c-10.039,3.717-20.145,7.254-30.204,10.911c-21.898,7.962-43.797,15.921-65.675,23.938c-18.071,6.622-36.127,13.289-54.163,20.01
		c-12.051,4.489-24.03,9.174-36.085,13.648c-11.888,4.414-23.86,8.6-35.744,13.023c-12.055,4.486-24.045,9.149-36.069,13.725
		c-6.727,2.56-13.458,5.108-20.202,7.624C65.931,497.256,64.931,497.372,64.39,497.497z"/>
	<path fill="#FFFFFF" d="M728.188,244.873c-0.784,2.17-1.679,4.515-2.479,6.892c-0.974,2.891-3.62,3.17-5.963,4.014
		c-11.423,4.109-22.829,8.264-34.243,12.396c-16.228,5.877-32.479,11.69-48.68,17.643c-14.173,5.209-28.287,10.576-42.432,15.865
		c-16.421,6.143-32.841,12.289-49.269,18.411c-16.429,6.123-32.876,12.196-49.301,18.332c-18.271,6.827-36.523,13.699-54.782,20.556
		c-4.125,1.549-8.224,3.172-12.383,4.621c-0.814,0.285-2.194,0.268-2.685-0.23c-0.468-0.475-0.35-1.835-0.074-2.669
		c0.645-1.96,1.365-3.937,2.393-5.712c0.626-1.081,1.729-2.18,2.868-2.624c14.572-5.69,29.16-11.345,43.806-16.845
		c13.888-5.213,27.851-10.229,41.776-15.34c13.078-4.799,26.165-9.576,39.227-14.418c21.42-7.945,42.805-15.981,64.237-23.891
		c19.148-7.066,38.355-13.975,57.513-21.021c12.231-4.5,24.422-9.11,36.614-13.715c3.356-1.267,6.66-2.674,9.976-4.047
		C726.526,242.17,728.104,242.788,728.188,244.873z"/>
	<path fill="#FFFFFF" d="M698.01,102.71c1.652-3.122,3.058-6.417,5.044-9.309c1.393-2.026,4.61-2.364,6.059-1.14
		c1.963,1.662,1.907,3.798,0.825,5.88c-1.072,2.065-2.186,4.161-3.629,5.965c-0.885,1.106-2.323,2.054-3.689,2.429
		C700.061,107.237,698.52,105.718,698.01,102.71z"/>
</g>
</svg>
